<svg width="128" height="128" viewBox="0 0 128 128" fill="none" xmlns="http://www.w3.org/2000/svg">
<path d="M116.548 102.605L111.381 100.812C114.273 98.5205 116.134 94.9814 116.134 91.0137V87.2266C116.134 80.3359 110.527 74.7295 103.637 74.7295C96.7461 74.7295 91.1396 80.3359 91.1396 87.2266V91.0137C91.1396 94.9814 93.001 98.5205 95.8936 100.812L90.7256 102.605C87.4111 103.757 84.625 105.868 82.6299 108.561H68.6709V103.052C68.6709 95.8008 64.0684 89.3311 57.2188 86.9531L52.0508 85.1592C54.9434 82.8682 56.8047 79.3291 56.8047 75.3613V71.5742C56.8047 64.6826 51.1982 59.0771 44.3076 59.0771C37.417 59.0771 31.8105 64.6836 31.8105 71.5742V75.3613C31.8105 79.3291 33.6719 82.8682 36.5635 85.1592L31.3965 86.9531C24.5469 89.3311 19.9443 95.8008 19.9443 103.052V108.561H1.89355C0.847656 108.561 0 109.408 0 110.454V126.106C0 127.152 0.847656 128 1.89355 128H80.6631C80.748 128 80.832 127.992 80.915 127.981C80.998 127.992 81.082 128 81.168 128H126.106C127.152 128 128 127.152 128 126.106V118.704C128 111.454 123.398 104.984 116.548 102.605ZM94.9268 87.2266C94.9268 82.4238 98.834 78.5166 103.637 78.5166C108.439 78.5166 112.347 82.4238 112.347 87.2266V91.0137C112.347 95.8164 108.439 99.7236 103.637 99.7236C98.834 99.7236 94.9268 95.8164 94.9268 91.0137V87.2266ZM35.5977 71.5742C35.5977 66.7715 39.5049 62.8643 44.3076 62.8643C49.1104 62.8643 53.0176 66.7715 53.0176 71.5742V75.3613C53.0176 80.1641 49.1104 84.0713 44.3076 84.0713C39.5049 84.0713 35.5977 80.1641 35.5977 75.3613V71.5742ZM48.2803 87.8584L50.1201 88.4971L44.3076 98.582L38.4951 88.4971L40.335 87.8584H48.2803ZM23.7314 103.052C23.7314 97.4121 27.3115 92.3799 32.6387 90.5303L34.8535 89.7617L42.667 103.32C43.0049 103.907 43.6309 104.269 44.3076 104.269C44.9844 104.269 45.6104 103.907 45.9482 103.32L53.7617 89.7617L55.9766 90.5303C61.3037 92.3799 64.8828 97.4121 64.8828 103.052V108.561H23.7314V103.052ZM3.78711 112.348H80.5078C79.709 114.329 79.2744 116.479 79.2744 118.704V124.213H3.78711V112.348ZM124.213 124.213H83.0615V118.704C83.0615 113.064 86.6406 108.033 91.9678 106.183L99.6641 103.511H107.609L115.306 106.183C120.634 108.033 124.213 113.064 124.213 118.704V124.213Z" fill="white"/>
<path d="M116.008 13.6328H96.7734C95.7275 13.6328 94.8799 14.4814 94.8799 15.5264C94.8799 16.5723 95.7275 17.4199 96.7734 17.4199H116.008C120.532 17.4199 124.213 21.1006 124.213 25.626V51.8818C124.213 56.4062 120.532 60.0869 116.008 60.0869H90.0039C88.958 60.0869 88.1104 60.9346 88.1104 61.9805V70.0332L78.7197 60.6416C78.3643 60.2861 77.8828 60.0869 77.3809 60.0869H61.9805C57.4561 60.0869 53.7744 56.4062 53.7744 51.8818V25.625C53.7744 21.1006 57.4551 17.4199 61.9805 17.4199H87.9209C88.9668 17.4199 89.8145 16.5723 89.8145 15.5264C89.8145 14.4805 88.9668 13.6328 87.9209 13.6328H78.0117V11.9922C78.0117 5.37988 72.6318 0 66.0195 0H11.9922C5.37988 0 0 5.37988 0 11.9922V16.1787C0 17.2246 0.847656 18.0723 1.89355 18.0723C2.93945 18.0723 3.78711 17.2246 3.78711 16.1787V11.9922C3.78711 7.46777 7.46777 3.78711 11.9922 3.78711H66.0195C70.5439 3.78711 74.2246 7.46777 74.2246 11.9922V13.6328H61.9805C55.3682 13.6328 49.9883 19.0127 49.9883 25.625V46.4531H30.1699C29.124 46.4531 28.2764 47.3008 28.2764 48.3467V56.3994L18.8857 47.0078C18.5303 46.6523 18.0488 46.4531 17.5469 46.4531H11.9922C7.46777 46.4531 3.78711 42.7725 3.78711 38.248V24.9834C3.78711 23.9375 2.93945 23.0898 1.89355 23.0898C0.847656 23.0898 0 23.9375 0 24.9834V38.248C0 44.8613 5.37988 50.2402 11.9922 50.2402H16.7617L28.8311 62.3096C29.1934 62.6719 29.6777 62.8643 30.1699 62.8633C30.4141 62.8633 30.6602 62.8164 30.8945 62.7197C31.6016 62.4268 32.0635 61.7363 32.0635 60.9707V50.2402H49.9883V51.8818C49.9883 58.4941 55.3682 63.873 61.9805 63.873H76.5967L88.665 75.9424C89.0273 76.3047 89.5117 76.4971 90.0039 76.4971C90.248 76.4971 90.4941 76.4502 90.7285 76.3525C91.4355 76.0596 91.8975 75.3691 91.8975 74.6035V63.873H116.008C122.62 63.873 128 58.4941 128 51.8818V25.625C128 19.0127 122.62 13.6328 116.008 13.6328Z" fill="white"/>
</svg>
