<svg width="141" height="137" viewBox="0 0 141 137" fill="none" xmlns="http://www.w3.org/2000/svg">
<path d="M120.685 135.463V93.7471L108.071 80.2813V99.0048C108.071 99.0048 92.3934 84.4086 87.8916 79.9068C85.8216 77.8368 80.9377 76.3187 77.7908 79.4662C74.6439 82.6131 76.2015 87.2859 77.7908 88.8759C79.3801 90.4651 87.6973 98.7817 87.6973 98.7817V113.735L95.9048 121.943H63.8555V135.463" stroke="white" stroke-width="2.5" stroke-miterlimit="1.5" stroke-linecap="round" stroke-linejoin="round"/>
<path d="M69.5703 26.125V13.6639" stroke="white" stroke-width="2.5" stroke-miterlimit="1.5" stroke-linecap="round" stroke-linejoin="round"/>
<path d="M74.9304 7.26625C74.9304 4.35848 72.5732 2.00126 69.6654 2.00126C66.7576 2.00126 64.4004 4.35848 64.4004 7.26625C64.4004 10.174 66.7576 12.5312 69.6654 12.5312C72.5732 12.5312 74.9304 10.174 74.9304 7.26625Z" stroke="white" stroke-width="2.5" stroke-miterlimit="1.5" stroke-linecap="round" stroke-linejoin="round"/>
<path d="M32.375 46.7188L11.8978 26.2415" stroke="white" stroke-width="2.5" stroke-miterlimit="1.5" stroke-linecap="round" stroke-linejoin="round"/>
<path d="M11.1897 18.2102C9.13359 16.1541 5.79999 16.1541 3.74388 18.2102C1.68778 20.2663 1.68779 23.5999 3.74389 25.656C5.79999 27.7121 9.1336 27.7121 11.1897 25.656C13.2458 23.5999 13.2458 20.2663 11.1897 18.2102Z" stroke="white" stroke-width="2.5" stroke-miterlimit="1.5" stroke-linecap="round" stroke-linejoin="round"/>
<path d="M107.803 47.3242L128.28 26.847" stroke="white" stroke-width="2.5" stroke-miterlimit="1.5" stroke-linecap="round" stroke-linejoin="round"/>
<path d="M136.298 26.0979C138.354 24.0418 138.354 20.7082 136.298 18.6521C134.242 16.596 130.908 16.596 128.852 18.6521C126.796 20.7082 126.796 24.0418 128.852 26.0979C130.908 28.154 134.242 28.154 136.298 26.0979Z" stroke="white" stroke-width="2.5" stroke-miterlimit="1.5" stroke-linecap="round" stroke-linejoin="round"/>
<path d="M51.6582 25.582L42.0173 15.9411" stroke="white" stroke-width="2.5" stroke-miterlimit="1.5" stroke-linecap="round" stroke-linejoin="round"/>
<path d="M41.3069 7.9016C39.2508 5.8455 35.9172 5.84549 33.8611 7.9016C31.805 9.9577 31.805 13.2913 33.8611 15.3474C35.9172 17.4035 39.2508 17.4035 41.3069 15.3474C43.363 13.2913 43.363 9.9577 41.3069 7.9016Z" stroke="white" stroke-width="2.5" stroke-miterlimit="1.5" stroke-linecap="round" stroke-linejoin="round"/>
<path d="M89.0762 25.6523L97.8875 16.841" stroke="white" stroke-width="2.5" stroke-miterlimit="1.5" stroke-linecap="round" stroke-linejoin="round"/>
<path d="M105.962 15.7815C108.018 13.7254 108.018 10.3918 105.962 8.33568C103.906 6.27958 100.572 6.27958 98.5159 8.33569C96.4598 10.3918 96.4598 13.7254 98.5159 15.7815C100.572 17.8376 103.906 17.8376 105.962 15.7815Z" stroke="white" stroke-width="2.5" stroke-miterlimit="1.5" stroke-linecap="round" stroke-linejoin="round"/>
<path d="M108.891 69.0117H121.352" stroke="white" stroke-width="2.5" stroke-miterlimit="1.5" stroke-linecap="round" stroke-linejoin="round"/>
<path d="M127.72 73.9987C130.628 73.9987 132.985 71.6415 132.985 68.7337C132.985 65.826 130.628 63.4688 127.72 63.4688C124.812 63.4688 122.455 65.826 122.455 68.7337C122.455 71.6415 124.812 73.9987 127.72 73.9987Z" stroke="white" stroke-width="2.5" stroke-miterlimit="1.5" stroke-linecap="round" stroke-linejoin="round"/>
<path d="M31.0977 69.0117H18.6365" stroke="white" stroke-width="2.5" stroke-miterlimit="1.5" stroke-linecap="round" stroke-linejoin="round"/>
<path d="M12.2311 73.9987C9.32332 73.9987 6.9661 71.6415 6.9661 68.7337C6.9661 65.826 9.32332 63.4688 12.2311 63.4688C15.1389 63.4688 17.4961 65.826 17.4961 68.7337C17.4961 71.6415 15.1389 73.9987 12.2311 73.9987Z" stroke="white" stroke-width="2.5" stroke-miterlimit="1.5" stroke-linecap="round" stroke-linejoin="round"/>
<path d="M105.772 97.049V47.7494H91.1471C88.4543 47.7494 86.2721 45.5672 86.2721 42.8744V28.2494H39.1423C36.4496 28.2494 34.2673 30.4334 34.2673 33.1244V43.8157C34.3684 43.7838 34.2727 114.376 34.2727 114.376C34.2727 117.067 36.4549 119.251 39.1477 119.251H95.2155V122.5H39.1477C34.6627 122.495 31.0268 118.861 31.0215 114.376V33.1244C31.0268 28.6394 34.6627 25.0053 39.1477 25H87.8977C87.9313 25 87.9597 25.0177 87.9881 25.0124C88.1334 25.0213 88.2753 25.0496 88.4135 25.0975C88.4649 25.1152 88.5128 25.1294 88.5624 25.1507C88.7397 25.2287 88.901 25.3404 89.0393 25.4769L108.539 44.9769C108.676 45.1134 108.786 45.2747 108.865 45.452C108.887 45.5034 108.901 45.553 108.919 45.6044C108.965 45.7391 108.993 45.881 109.002 46.0228C109.004 46.0582 109.021 46.0901 109.021 46.1256V97.049H105.772Z" fill="white"/>
<path d="M79.7441 36.5418C79.7441 35.6448 79.0173 34.918 78.1185 34.918H42.3697C41.471 34.918 40.7441 35.6448 40.7441 36.5418C40.7441 37.4406 41.471 38.1674 42.3697 38.1674H78.1185C79.0173 38.1674 79.7441 37.4406 79.7441 36.5418Z" fill="white"/>
<path d="M97.6911 69.6133H42.7483C41.8364 69.6133 41.0957 70.3401 41.0957 71.2371C41.0957 72.1359 41.8364 72.8627 42.7483 72.8627H97.6911C98.603 72.8627 99.3419 72.1359 99.3419 71.2371C99.3419 70.3401 98.603 69.6133 97.6911 69.6133Z" fill="white"/>
<path d="M69.4125 81.7539H42.944C42.047 81.7539 41.3184 82.4807 41.3184 83.3777C41.3184 84.2765 42.047 85.0033 42.944 85.0033H69.4125C70.3095 85.0033 71.0381 84.2765 71.0381 83.3777C71.0381 82.4807 70.3095 81.7539 69.4125 81.7539Z" fill="white"/>
<path d="M70.7403 95.2019C70.7403 94.3049 70.0117 93.5781 69.1147 93.5781H42.9422C42.0452 93.5781 41.3184 94.3049 41.3184 95.2019C41.3184 96.1007 42.0452 96.8275 42.9422 96.8275H69.1147C70.0117 96.8275 70.7403 96.1007 70.7403 95.2019Z" fill="white"/>
<path d="M72.0588 107.018C72.0588 106.121 71.332 105.395 70.4332 105.395H43.1315C42.2327 105.395 41.5059 106.121 41.5059 107.018C41.5059 107.917 42.2327 108.644 43.1315 108.644H70.4332C71.332 108.644 72.0588 107.917 72.0588 107.018Z" fill="white"/>
<path d="M79.6825 47.909C79.6825 47.012 78.9539 46.2852 78.0569 46.2852H42.5279C41.6309 46.2852 40.9023 47.012 40.9023 47.909C40.9023 48.8077 41.6309 49.5346 42.5279 49.5346H78.0569C78.9539 49.5346 79.6825 48.8077 79.6825 47.909Z" fill="white"/>
<path d="M99.3194 59.7371C99.3194 58.8401 98.5926 58.1133 97.6956 58.1133H42.5301C41.6331 58.1133 40.9062 58.8401 40.9062 59.7371C40.9062 60.6359 41.6331 61.3627 42.5301 61.3627H97.6956C98.5926 61.3627 99.3194 60.6359 99.3194 59.7371Z" fill="white"/>
</svg>
