<svg width="51" height="51" viewBox="0 0 51 51" fill="none" xmlns="http://www.w3.org/2000/svg">
<path d="M26.9709 1.42715C26.1823 0.638531 24.9037 0.63853 24.115 1.42715C23.3264 2.21578 23.3264 3.49439 24.115 4.28301C24.9037 5.07163 26.1823 5.07163 26.9709 4.28301C27.7595 3.49439 27.7595 2.21578 26.9709 1.42715Z" stroke="white" stroke-width="1.5" stroke-miterlimit="1.5" stroke-linecap="round" stroke-linejoin="round"/>
<path d="M17.166 4.84008C19.1018 3.8572 21.2332 3.2048 23.4856 2.95703" stroke="white" stroke-width="1.5" stroke-miterlimit="1.5" stroke-linecap="round" stroke-linejoin="round"/>
<path d="M27.6191 2.95703C29.8715 3.2048 32.0028 3.8572 33.9386 4.84008" stroke="white" stroke-width="1.5" stroke-miterlimit="1.5" stroke-linecap="round" stroke-linejoin="round"/>
<path d="M22.2612 45.1575L18.6613 41.5576C17.4178 40.3141 15.3987 40.3141 14.1553 41.5576C12.9118 42.8011 12.9118 44.8201 14.1553 46.0636L18.0447 49.953" stroke="white" stroke-width="1.5" stroke-miterlimit="1.5" stroke-linecap="round" stroke-linejoin="round"/>
<path d="M22.2949 45.1162V38.4492" stroke="white" stroke-width="1.5" stroke-miterlimit="1.5" stroke-linecap="round" stroke-linejoin="round"/>
<path d="M28.8458 41.9513V21.9541C28.8458 20.1728 27.3996 18.7266 25.6182 18.7266C23.8369 18.7266 22.3906 20.1728 22.3906 21.9541V35.1892" stroke="white" stroke-width="1.5" stroke-miterlimit="1.5" stroke-linecap="round" stroke-linejoin="round"/>
<path d="M35.0812 42.0626V37.1416C35.0812 35.3602 33.7708 33.9141 31.9894 33.9141C30.2081 33.9141 28.7988 35.3602 28.7988 37.1416V39.165" stroke="white" stroke-width="1.5" stroke-miterlimit="1.5" stroke-linecap="round" stroke-linejoin="round"/>
<path d="M41.4306 42.1259V40.1026C41.4306 38.3212 40.1203 36.875 38.3389 36.875C36.5576 36.875 35.1113 38.3212 35.1113 40.1026V42.1259" stroke="white" stroke-width="1.5" stroke-miterlimit="1.5" stroke-linecap="round" stroke-linejoin="round"/>
<path d="M47.8408 44.0947V42.0713C47.8408 40.2899 46.5305 38.8438 44.7491 38.8438C42.9678 38.8438 41.5215 40.2899 41.5215 42.0713" stroke="white" stroke-width="1.5" stroke-miterlimit="1.5" stroke-linecap="round" stroke-linejoin="round"/>
<path d="M47.8301 47.5234V49.9587" stroke="white" stroke-width="1.5" stroke-miterlimit="1.5" stroke-linecap="round" stroke-linejoin="round"/>
<path d="M31.2156 17.9336C32.0182 19.0659 32.4902 20.4488 32.4902 21.9412C32.4902 24.5975 30.9948 26.9073 28.8008 28.0741" stroke="white" stroke-width="1.5" stroke-miterlimit="1.5" stroke-linecap="round" stroke-linejoin="round"/>
<path d="M22.2894 28.0549C20.0953 26.8881 18.6445 24.5782 18.6445 21.9219C18.6445 18.0908 21.7549 14.9805 25.586 14.9805C26.8056 14.9805 27.9521 15.2958 28.9486 15.8491" stroke="white" stroke-width="1.5" stroke-miterlimit="1.5" stroke-linecap="round" stroke-linejoin="round"/>
<path d="M22.2847 31.4078C18.4272 30.0271 15.6641 26.3376 15.6641 22.0079C15.6641 16.4994 20.1362 12.0273 25.6447 12.0273C31.153 12.0273 35.6252 16.4994 35.6252 22.0079C35.6252 26.3376 32.8621 30.0271 29.0046 31.4078" stroke="white" stroke-width="1.5" stroke-miterlimit="1.5" stroke-linecap="round" stroke-linejoin="round"/>
<path d="M35.998 21.8789H45.6383" stroke="white" stroke-width="1.5" stroke-miterlimit="1.5" stroke-linecap="round" stroke-linejoin="round"/>
<path d="M47.9784 23.9411C49.0937 23.9411 49.9978 23.037 49.9978 21.9217C49.9978 20.8065 49.0937 19.9023 47.9784 19.9023C46.8631 19.9023 45.959 20.8065 45.959 21.9217C45.959 23.037 46.8631 23.9411 47.9784 23.9411Z" stroke="white" stroke-width="1.5" stroke-miterlimit="1.5" stroke-linecap="round" stroke-linejoin="round"/>
<path d="M32.9492 14.582L39.7659 7.76534" stroke="white" stroke-width="1.5" stroke-miterlimit="1.5" stroke-linecap="round" stroke-linejoin="round"/>
<path d="M42.9479 7.5334C43.7365 6.74477 43.7365 5.46616 42.9479 4.67754C42.1592 3.88891 40.8806 3.88891 40.092 4.67754C39.3034 5.46616 39.3034 6.74477 40.092 7.5334C40.8806 8.32202 42.1592 8.32202 42.9479 7.5334Z" stroke="white" stroke-width="1.5" stroke-miterlimit="1.5" stroke-linecap="round" stroke-linejoin="round"/>
<path d="M18.0469 14.5742L11.2302 7.75753" stroke="white" stroke-width="1.5" stroke-miterlimit="1.5" stroke-linecap="round" stroke-linejoin="round"/>
<path d="M10.9982 4.59512C10.2096 3.80649 8.931 3.80649 8.14238 4.59512C7.35376 5.38374 7.35376 6.66235 8.14238 7.45098C8.93101 8.2396 10.2096 8.2396 10.9982 7.45098C11.7869 6.66235 11.7869 5.38374 10.9982 4.59512Z" stroke="white" stroke-width="1.5" stroke-miterlimit="1.5" stroke-linecap="round" stroke-linejoin="round"/>
<path d="M14.998 22.082H5.35779" stroke="white" stroke-width="1.5" stroke-miterlimit="1.5" stroke-linecap="round" stroke-linejoin="round"/>
<path d="M3.01966 20.0159C1.90438 20.0159 1.00027 20.92 1.00027 22.0353C1.00027 23.1506 1.90438 24.0547 3.01966 24.0547C4.13495 24.0547 5.03906 23.1506 5.03906 22.0353C5.03906 20.92 4.13495 20.0159 3.01966 20.0159Z" stroke="white" stroke-width="1.5" stroke-miterlimit="1.5" stroke-linecap="round" stroke-linejoin="round"/>
</svg>
