<svg width="56" height="56" viewBox="0 0 56 56" fill="none" xmlns="http://www.w3.org/2000/svg">
<path fill-rule="evenodd" clip-rule="evenodd" d="M28.9327 15.0607C28.9327 14.5098 28.4855 14.0625 27.9345 14.0625H18.758C18.2071 14.0625 17.7598 14.5098 17.7598 15.0607V24.1745C17.7598 24.7255 18.2071 25.1727 18.758 25.1727H27.9345C28.4855 25.1727 28.9327 24.7255 28.9327 24.1745V15.0607Z" stroke="white" stroke-width="1.5" stroke-miterlimit="1.5" stroke-linecap="round" stroke-linejoin="round"/>
<path d="M21.0254 18.4177L23.8815 21.0226L34.0502 11.2305" stroke="white" stroke-width="1.5" stroke-miterlimit="1.5" stroke-linecap="round" stroke-linejoin="round"/>
<path fill-rule="evenodd" clip-rule="evenodd" d="M12.2918 41.9258V6.39827C12.2918 6.39827 11.7895 1 6.70523 1C2.81353 1 1 4.26403 1 6.26595V41.9258C1 41.9258 1.63105 36.2206 6.70523 36.2206C11.7794 36.2206 12.2918 41.3117 12.2918 41.9258Z" stroke="white" stroke-width="1.5" stroke-miterlimit="1.5" stroke-linecap="round" stroke-linejoin="round"/>
<path d="M1 41.9219C1 45.6204 4.05337 47.5125 6.92044 47.5125H17.3703" stroke="white" stroke-width="1.5" stroke-miterlimit="1.5" stroke-linecap="round" stroke-linejoin="round"/>
<path d="M12.6465 6.22656H47.6719C47.6719 6.22656 49.6178 6.41484 49.6178 8.67452V34.2845" stroke="white" stroke-width="1.5" stroke-miterlimit="1.5" stroke-linecap="round" stroke-linejoin="round"/>
<path fill-rule="evenodd" clip-rule="evenodd" d="M20.6777 55.0387C20.1254 55.0387 17.6523 54.4013 17.6523 52.2545C17.6523 49.455 20.6777 49.229 20.6777 49.229H30.2941H20.6777C20.1756 49.229 17.69 48.9278 17.69 46.5676C17.69 43.7556 20.6024 43.6551 20.6024 43.6551H30.2941H20.6024C19.9497 43.6551 17.8406 43.4542 17.8406 40.8933C17.8406 38.3322 20.6777 37.9054 20.6777 37.9054H30.2941H20.6777C19.3471 37.9054 17.8406 37.4284 17.8406 35.0682C17.8406 32.708 20.502 32.4068 20.502 32.4068H32.9556V21.1082C32.9556 18.7482 34.9832 17.543 36.6213 17.543C37.542 17.543 40.036 18.4017 40.036 21.7767V28.9266C40.036 32.1251 42.8675 34.5006 45.4592 34.5006H55.0504V52.779L44.003 55.0387H20.6777Z" stroke="white" stroke-width="1.5" stroke-miterlimit="1.5" stroke-linecap="round" stroke-linejoin="round"/>
</svg>
