<svg width="209" height="46" viewBox="0 0 209 46" fill="none" xmlns="http://www.w3.org/2000/svg">
<path fill-rule="evenodd" clip-rule="evenodd" d="M40.5756 19.2113C37.4146 19.387 34.8703 19.925 33.2649 21.0202C31.5771 22.2367 30.5303 23.6264 30.3147 25.2427C30.1705 25.7406 30.139 30.4416 30.1414 33.1847L22.7725 37.0545L15.3066 33.3276L15.4048 26.0665C15.3527 22.3251 16.3862 18.7134 18.7342 15.2652C20.365 13.3315 21.9001 10.9931 24.5366 9.458C25.0939 9.02425 26.0632 8.8522 27.5219 8.99396C28.8692 9.12239 29.9076 9.43619 30.7399 9.87842C26.5878 11.5638 23.2789 13.9918 21.1453 17.4557C19.8659 19.6608 19.0299 21.9919 18.8651 24.5121L18.7766 31.652L21.0181 32.9266L21.1429 25.6025C21.4094 22.1434 22.5665 19.4561 24.396 17.4206C25.7167 15.8552 27.8297 14.3153 30.3207 13.1085C31.3809 12.6033 32.6882 12.4543 34.0027 12.7632C35.287 13.077 36.4041 13.5168 37.3746 14.0705C33.5436 14.8036 30.0978 16.2514 28.3822 17.8834C26.3237 19.9407 24.8249 22.0549 24.5935 24.3025C24.4578 25.2414 24.4396 29.9533 24.4178 32.8272L26.7792 31.6944L26.7707 25.3202C27.0252 23.3683 27.9593 21.6999 29.3272 20.2097C30.1099 19.3579 32.441 17.9198 34.3687 17.2582C36.6804 16.3193 39.0187 17.6035 40.5756 19.2113Z" fill="#4CA85F"/>
<path fill-rule="evenodd" clip-rule="evenodd" d="M4.96777 19.2113C8.12761 19.387 10.6732 19.925 12.2785 21.0202C13.9663 22.2367 15.0131 23.6264 15.2288 25.2427C15.3729 25.7406 15.3063 30.5846 15.3051 33.3276L22.7709 37.0545L30.1398 33.1847V26.0665C30.1919 22.3251 29.1572 18.7134 26.8104 15.2652C25.1796 13.3315 23.6433 10.9931 21.0081 9.458C20.4507 9.02425 19.4815 8.8522 18.0227 8.99396C16.6754 9.12239 15.6371 9.43619 14.8047 9.87842C18.9556 11.5638 22.2657 13.9918 24.3993 17.4557C25.6788 19.6608 26.5147 21.9919 26.6795 24.5121L26.7765 31.6956L24.4151 32.8284L24.4029 25.6025C24.1364 22.1434 22.9793 19.4561 21.1498 17.4206C19.8292 15.8552 17.7162 14.3153 15.2251 13.1085C14.1638 12.6033 12.8565 12.4543 11.5431 12.7632C10.2588 13.077 9.14171 13.5168 8.17123 14.0705C12.0023 14.8036 15.4481 16.2514 17.1637 17.8834C19.2222 19.9407 20.7209 22.0549 20.9523 24.3025C21.088 25.2414 20.9947 30.0503 21.0153 32.9254L18.7739 31.6508V25.3202C18.5207 23.3683 17.5865 21.6999 16.2186 20.2097C15.4359 19.3579 13.1048 17.9198 11.1772 17.2582C8.86305 16.3193 6.52467 17.6035 4.96777 19.2113Z" fill="#2D3B96"/>
<path d="M51.3288 27.4757L49.4837 23.7905L52.365 20.2998H50.5356L47.7528 23.8212L47.7456 23.8622L49.3434 27.4757H51.3288ZM47.067 27.4757L48.332 20.2998H46.7416L45.4766 27.4757H47.067Z" fill="#2D3B96"/>
<path d="M56.6553 27.4757L56.8827 26.1859H54.0242L54.3255 24.4764H56.6747L56.9021 23.1865H54.5529L54.8344 21.5896H57.5682L57.7955 20.2998H53.4818L52.2168 27.4757H56.6553Z" fill="#2D3B96"/>
<path d="M59.5499 27.4757L60.4865 22.1629H60.5488L61.3646 26.6158H62.6743L65.0809 22.1629H65.1224L64.1859 27.4757H65.7035L66.9684 20.2998H64.5881L62.5443 24.1693H62.5027L61.8024 20.2998H59.3597L58.0947 27.4757H59.5499Z" fill="#2D3B96"/>
<path d="M71.8512 27.4757L72.0786 26.1859H69.2201L69.5214 24.4764H71.8706L72.098 23.1865H69.7488L70.0303 21.5896H72.7641L72.9914 20.2998H68.6777L67.4127 27.4757H71.8512Z" fill="#2D3B96"/>
<path d="M74.8082 27.4757L75.2864 24.763C75.5047 23.5244 75.571 22.9716 75.6245 22.255H75.6661C75.8286 23.0432 76.0055 23.7496 76.2466 24.4457L77.3133 27.4757H79.1739L80.4388 20.2998H78.9316L78.531 22.5723C78.3975 23.3299 78.2225 24.3228 78.1288 25.326H78.0872C77.9433 24.6094 77.689 23.811 77.4461 23.1251L76.4577 20.2998H74.5556L73.2906 27.4757H74.8082Z" fill="#2D3B96"/>
<path d="M83.4712 27.4757L84.5088 21.5896H86.3174L86.5448 20.2998H81.3372L81.1098 21.5896H82.9184L81.8808 27.4757H83.4712Z" fill="#2D3B96"/>
<path d="M90.5897 27.4757L90.8171 26.1859H87.9586L88.26 24.4764H90.6091L90.8365 23.1865H88.4873L88.7688 21.5896H91.5026L91.73 20.2998H87.4162L86.1513 27.4757H90.5897Z" fill="#2D3B96"/>
<path d="M93.5779 27.4757L94.0489 24.8039H94.1528C94.4855 24.8039 94.6685 24.8858 94.7585 25.1417L95.5529 27.4757H97.4447L96.6807 25.5C96.4442 24.8961 96.252 24.6299 95.8999 24.4457L95.9071 24.4047C96.7884 24.2409 97.5772 23.6574 97.7974 22.4086C98.0627 20.9038 97.2544 20.2998 95.6433 20.2998H93.2733L92.0083 27.4757H93.5779ZM94.6155 21.5896H95.2392C95.9356 21.5896 96.2783 21.8865 96.1628 22.5416C96.0455 23.207 95.7121 23.5653 94.8701 23.5653H94.2672L94.6155 21.5896Z" fill="#2D3B96"/>
<path d="M100.057 27.4757L101.322 20.2998H99.7312L98.4663 27.4757H100.057Z" fill="#2D3B96"/>
<path d="M104.564 23.4936C104.984 22.5826 105.243 21.9991 105.476 21.3849H105.517C105.53 22.0196 105.584 22.5416 105.689 23.5346L105.793 24.5378H104.078L104.564 23.4936ZM102.729 27.4757L103.487 25.8276H105.93L106.096 27.4757H107.76L106.81 20.2998H104.596L101.128 27.4757H102.729Z" fill="#2D3B96"/>
<path d="M110.286 27.4757L110.764 24.763C110.982 23.5244 111.048 22.9716 111.102 22.255H111.144C111.306 23.0432 111.483 23.7496 111.724 24.4457L112.791 27.4757H114.651L115.916 20.2998H114.409L114.008 22.5723C113.875 23.3299 113.7 24.3228 113.606 25.326H113.565C113.421 24.6094 113.166 23.811 112.923 23.1251L111.935 20.2998H110.033L108.768 27.4757H110.286Z" fill="#2D3B96"/>
<path d="M120.947 27.4757L122.212 20.2998H120.622L119.357 27.4757H120.947Z" fill="#2D3B96"/>
<path d="M124.253 27.4757L124.731 24.763C124.95 23.5244 125.016 22.9716 125.07 22.255H125.111C125.274 23.0432 125.451 23.7496 125.692 24.4457L126.758 27.4757H128.619L129.884 20.2998H128.377L127.976 22.5723C127.843 23.3299 127.667 24.3228 127.574 25.326H127.532C127.388 24.6094 127.134 23.811 126.891 23.1251L125.903 20.2998H124.001L122.736 27.4757H124.253Z" fill="#2D3B96"/>
<path d="M133.966 27.4757L137.57 20.2998H135.896L134.09 24.1795C133.77 24.8756 133.502 25.5103 133.249 26.1757H133.208C133.183 25.4898 133.108 24.8551 133.038 24.1897L132.601 20.2998H130.834L131.908 27.4757H133.966Z" fill="#2D3B96"/>
<path d="M141.669 27.4757L141.896 26.1859H139.038L139.339 24.4764H141.688L141.916 23.1865H139.567L139.848 21.5896H142.582L142.809 20.2998H138.496L137.231 27.4757H141.669Z" fill="#2D3B96"/>
<path d="M148.152 25.4591C148.554 23.1763 145.177 23.3503 145.38 22.1936C145.444 21.8353 145.785 21.5487 146.305 21.5487C147.074 21.5487 147.41 21.9991 147.549 22.2141L148.741 21.0573C148.556 20.7502 147.894 20.1974 146.678 20.1974C145.171 20.1974 143.947 21.129 143.737 22.3164C143.338 24.5787 146.723 24.4252 146.523 25.5615C146.456 25.9402 146.099 26.2575 145.464 26.2575C144.581 26.2575 144.044 25.7048 143.787 25.3977L142.655 26.6875C142.856 26.9639 143.621 27.5781 145.024 27.5781C146.874 27.5781 147.962 26.5339 148.152 25.4591Z" fill="#2D3B96"/>
<path d="M151.36 27.4757L152.398 21.5896H154.207L154.434 20.2998H149.226L148.999 21.5896H150.808L149.77 27.4757H151.36Z" fill="#2D3B96"/>
<path d="M156.313 23.4936C156.733 22.5826 156.992 21.9991 157.225 21.3849H157.267C157.279 22.0196 157.333 22.5416 157.439 23.5346L157.542 24.5378H155.827L156.313 23.4936ZM154.478 27.4757L155.236 25.8276H157.679L157.846 27.4757H159.509L158.56 20.2998H156.346L152.877 27.4757H154.478Z" fill="#2D3B96"/>
<path d="M165.561 25.4591C165.963 23.1763 162.585 23.3503 162.789 22.1936C162.852 21.8353 163.194 21.5487 163.714 21.5487C164.483 21.5487 164.819 21.9991 164.958 22.2141L166.149 21.0573C165.965 20.7502 165.303 20.1974 164.087 20.1974C162.58 20.1974 161.355 21.129 161.146 22.3164C160.747 24.5787 164.132 24.4252 163.931 25.5615C163.865 25.9402 163.507 26.2575 162.873 26.2575C161.99 26.2575 161.453 25.7048 161.195 25.3977L160.064 26.6875C160.264 26.9639 161.029 27.5781 162.433 27.5781C164.283 27.5781 165.371 26.5339 165.561 25.4591Z" fill="#2D3B96"/>
<path d="M168.129 27.4757L169.393 20.2998H167.803L166.538 27.4757H168.129Z" fill="#2D3B96"/>
<path d="M170.004 29.1033L174.55 20.0029H173.251L168.705 29.1033H170.004Z" fill="#2D3B96"/>
<path d="M186.539 27.4757L184.694 23.7905L187.575 20.2998H185.746L182.963 23.8212L182.956 23.8622L184.554 27.4757H186.539ZM182.277 27.4757L183.542 20.2998H181.952L180.687 27.4757H182.277Z" fill="#4CA85F"/>
<path d="M189.018 27.4757L189.467 24.9268H190.07C192.201 24.9268 193.122 23.77 193.358 22.429C193.638 20.8423 192.663 20.2998 191.187 20.2998H188.692L187.427 27.4757H189.018ZM190.05 21.6203H190.694C191.505 21.6203 191.802 21.9377 191.678 22.644C191.58 23.1968 191.272 23.6472 190.212 23.6472H189.692L190.05 21.6203Z" fill="#4CA85F"/>
<path d="M195.126 27.4757L196.062 22.1629H196.125L196.94 26.6158H198.25L200.657 22.1629H200.698L199.762 27.4757H201.279L202.544 20.2998H200.164L198.12 24.1693H198.078L197.378 20.2998H194.935L193.67 27.4757H195.126Z" fill="#4CA85F"/>
<path fill-rule="evenodd" clip-rule="evenodd" d="M176.388 27.4757C178.81 27.4757 179.512 26.2064 179.676 25.2748C179.854 24.2614 179.218 23.8008 178.536 23.7189L178.544 23.6779C179.129 23.4834 179.728 22.9716 179.871 22.1629C180.125 20.7195 179.139 20.2998 177.85 20.2998H175.241L173.976 27.4757H176.388ZM177.085 24.4661H176.076L175.773 26.1859H176.865C177.665 26.1859 177.983 25.7355 178.056 25.326C178.166 24.7016 177.677 24.4661 177.085 24.4661ZM177.436 21.5896H176.583L176.304 23.1763H177.094C177.863 23.1763 178.233 22.7873 178.305 22.3779C178.383 21.9377 178.184 21.5896 177.436 21.5896Z" fill="#4CA85F"/>
</svg>
