<svg width="110" height="132" viewBox="0 0 110 132" fill="none" xmlns="http://www.w3.org/2000/svg">
<path fill-rule="evenodd" clip-rule="evenodd" d="M106.893 39.0552L71.9092 3H15.8277C8.74786 3 3 8.74786 3 15.8277V116.608C3 123.688 8.74786 129.436 15.8277 129.436H94.0653C101.145 129.436 106.893 123.688 106.893 116.608V39.0552Z" stroke="white" stroke-width="4.5" stroke-miterlimit="1.5" stroke-linecap="round" stroke-linejoin="round"/>
<path fill-rule="evenodd" clip-rule="evenodd" d="M71.4922 3.26172V38.8009L106.516 38.9153L71.4922 3.26172Z" stroke="white" stroke-width="4.5" stroke-miterlimit="1.5" stroke-linecap="round" stroke-linejoin="round"/>
<path d="M17.0819 59.1017L24.4002 65.1653L35.7264 53.084" stroke="white" stroke-width="4.5" stroke-miterlimit="1.5" stroke-linecap="round" stroke-linejoin="round"/>
<path d="M17.0819 83.3566L24.4002 89.4202L35.7264 77.3389" stroke="white" stroke-width="4.5" stroke-miterlimit="1.5" stroke-linecap="round" stroke-linejoin="round"/>
<path d="M52.002 59.1143H91.7295" stroke="white" stroke-width="4.5" stroke-miterlimit="1.5" stroke-linecap="round" stroke-linejoin="round"/>
<path d="M52.002 83.3701H91.7295" stroke="white" stroke-width="4.5" stroke-miterlimit="1.5" stroke-linecap="round" stroke-linejoin="round"/>
<path d="M52.002 108.936H91.7295" stroke="white" stroke-width="4.5" stroke-miterlimit="1.5" stroke-linecap="round" stroke-linejoin="round"/>
<path d="M17.0819 108.923L24.4002 114.987L35.7264 102.905" stroke="white" stroke-width="4.5" stroke-miterlimit="1.5" stroke-linecap="round" stroke-linejoin="round"/>
</svg>
