<svg width="124" height="136" viewBox="0 0 124 136" fill="none" xmlns="http://www.w3.org/2000/svg">
<path d="M6.88968 80.6562L5.01159 81.7404C2.03161 83.4611 2.40578 86.4707 5.84688 88.4574L55.9637 117.392C59.4048 119.379 64.6178 119.595 67.5978 117.875L119.385 87.9752C122.365 86.2547 121.991 83.2449 118.55 81.2582L117.507 80.6562" stroke="white" stroke-width="4" stroke-miterlimit="1.5" stroke-linecap="round" stroke-linejoin="round"/>
<path d="M6.88968 94.9805L5.01159 96.0647C2.03161 97.7853 2.40578 100.795 5.84688 102.782L55.9637 131.717C59.4048 133.703 64.6178 133.919 67.5978 132.199L119.385 102.299C122.365 100.579 121.991 97.5691 118.55 95.5824L117.507 94.9805" stroke="white" stroke-width="4" stroke-miterlimit="1.5" stroke-linecap="round" stroke-linejoin="round"/>
<path fill-rule="evenodd" clip-rule="evenodd" d="M92.0115 51.1953L118.55 66.5173C121.991 68.5039 122.365 71.5137 119.385 73.2341L67.5978 103.134C64.6178 104.854 59.4048 104.638 55.9637 102.652L5.84688 73.7164C2.40578 71.7297 2.03161 68.7201 5.01159 66.9996L32.3649 51.2071C41.0299 70.0633 62.1984 86.8617 62.1984 86.8617C62.1984 86.8617 83.3296 70.0016 92.0115 51.1953Z" stroke="white" stroke-width="4" stroke-miterlimit="1.5" stroke-linecap="round" stroke-linejoin="round"/>
<path d="M61.7663 57.5033C73.5399 57.5033 83.0844 47.9589 83.0844 36.1852C83.0844 24.4116 73.5399 14.8672 61.7663 14.8672C49.9927 14.8672 40.4482 24.4116 40.4482 36.1852C40.4482 47.9589 49.9927 57.5033 61.7663 57.5033Z" stroke="white" stroke-width="5" stroke-miterlimit="1.5" stroke-linecap="round" stroke-linejoin="round"/>
<path fill-rule="evenodd" clip-rule="evenodd" d="M62.1963 3C80.6677 3 95.664 17.9965 95.664 36.4677C95.664 60.1421 62.1963 86.8454 62.1963 86.8454C62.1963 86.8454 28.7286 60.2866 28.7286 36.4677C28.7286 17.9965 43.7249 3 62.1963 3Z" stroke="white" stroke-width="5" stroke-miterlimit="1.5" stroke-linecap="round" stroke-linejoin="round"/>
</svg>
