<svg width="49" height="49" viewBox="0 0 49 49" fill="none" xmlns="http://www.w3.org/2000/svg">
<g clip-path="url(#clip0_5250_8053)">
<path d="M44.616 39.2765L42.638 38.5897C43.7453 37.7127 44.4575 36.3579 44.4575 34.839V33.3892C44.4575 30.7514 42.3112 28.6052 39.6734 28.6052C37.0356 28.6052 34.8894 30.7514 34.8894 33.3892V34.839C34.8894 36.3579 35.6019 37.7127 36.7093 38.5897L34.7309 39.2765C33.4621 39.7172 32.3955 40.5255 31.6318 41.5561H26.2881V39.4473C26.2881 36.6715 24.5262 34.1949 21.9041 33.2846L19.9257 32.5978C21.033 31.7208 21.7455 30.366 21.7455 28.8471V27.3973C21.7455 24.7591 19.5993 22.6133 16.9615 22.6133C14.3237 22.6133 12.1775 24.7595 12.1775 27.3973V28.8471C12.1775 30.366 12.89 31.7208 13.997 32.5978L12.019 33.2846C9.39685 34.1949 7.63494 36.6715 7.63494 39.4473V41.5561H0.724876C0.324493 41.5561 0 41.8806 0 42.281V48.2729C0 48.6733 0.324493 48.9978 0.724876 48.9978H30.8788C30.9114 48.9978 30.9435 48.9948 30.9753 48.9907C31.0071 48.9948 31.0392 48.9978 31.0721 48.9978H48.2751C48.6755 48.9978 49 48.6733 49 48.2729V45.4392C49 42.6638 47.2385 40.1871 44.616 39.2765ZM36.3391 33.3892C36.3391 31.5507 37.8349 30.0549 39.6734 30.0549C41.512 30.0549 43.0077 31.5507 43.0077 33.3892V34.839C43.0077 36.6775 41.512 38.1733 39.6734 38.1733C37.8349 38.1733 36.3391 36.6775 36.3391 34.839V33.3892ZM13.6272 27.3973C13.6272 25.5588 15.123 24.063 16.9615 24.063C18.8001 24.063 20.2958 25.5588 20.2958 27.3973V28.8471C20.2958 30.6856 18.8001 32.1814 16.9615 32.1814C15.123 32.1814 13.6272 30.6856 13.6272 28.8471V27.3973ZM18.4823 33.6311L19.1866 33.8756L16.9615 37.7362L14.7364 33.8756L15.4407 33.6311H18.4823ZM9.08469 39.4473C9.08469 37.2884 10.4552 35.362 12.4945 34.6539L13.3424 34.3597L16.3335 39.5501C16.4628 39.7748 16.7024 39.9131 16.9615 39.9131C17.2206 39.9131 17.4602 39.7748 17.5896 39.5501L20.5807 34.3597L21.4285 34.6539C23.4678 35.362 24.838 37.2884 24.838 39.4473V41.5561H9.08469V39.4473ZM1.44975 43.0059H30.8194C30.5136 43.7644 30.3472 44.5876 30.3472 45.4392V47.5481H1.44975V43.0059ZM47.5502 47.5481H31.797V45.4392C31.797 43.2803 33.1671 41.3543 35.2064 40.6458L38.1526 39.623H41.1942L44.1404 40.6458C46.1801 41.3543 47.5502 43.2803 47.5502 45.4392V47.5481Z" fill="white"/>
<path d="M44.4092 5.21881H37.0461C36.6457 5.21881 36.3212 5.54368 36.3212 5.94369C36.3212 6.34407 36.6457 6.66856 37.0461 6.66856H44.4092C46.1412 6.66856 47.5502 8.07757 47.5502 9.80994V19.861C47.5502 21.593 46.1412 23.002 44.4092 23.002H34.4546C34.0542 23.002 33.7297 23.3265 33.7297 23.7269V26.8096L30.1349 23.2144C29.9988 23.0783 29.8145 23.002 29.6224 23.002H23.7269C21.9949 23.002 20.5855 21.593 20.5855 19.861V9.80957C20.5855 8.07757 21.9945 6.66856 23.7269 6.66856H33.6572C34.0576 6.66856 34.3821 6.34407 34.3821 5.94369C34.3821 5.5433 34.0576 5.21881 33.6572 5.21881H29.8639V4.59076C29.8639 2.05949 27.8044 0 25.2731 0H4.59076C2.05949 0 0 2.05949 0 4.59076V6.19341C0 6.5938 0.324493 6.91829 0.724876 6.91829C1.12526 6.91829 1.44975 6.5938 1.44975 6.19341V4.59076C1.44975 2.85876 2.85876 1.44975 4.59076 1.44975H25.2731C27.0051 1.44975 28.4141 2.85876 28.4141 4.59076V5.21881H23.7269C21.1956 5.21881 19.1361 7.2783 19.1361 9.80957V17.7828H11.5494C11.149 17.7828 10.8245 18.1073 10.8245 18.5077V21.5904L7.2297 17.9952C7.09362 17.8591 6.90932 17.7828 6.71716 17.7828H4.59076C2.85876 17.7828 1.44975 16.3738 1.44975 14.6418V9.56396C1.44975 9.16357 1.12526 8.83908 0.724876 8.83908C0.324493 8.83908 0 9.16357 0 9.56396V14.6418C0 17.1735 2.05949 19.2326 4.59076 19.2326H6.4166L11.0369 23.8529C11.1756 23.9916 11.361 24.0652 11.5494 24.0648C11.6429 24.0648 11.7371 24.0469 11.8268 24.0099C12.0975 23.8977 12.2743 23.6334 12.2743 23.3403V19.2326H19.1361V19.861C19.1361 22.3923 21.1956 24.4514 23.7269 24.4514H29.3222L33.9421 29.0717C34.0808 29.2104 34.2662 29.284 34.4546 29.284C34.5481 29.284 34.6423 29.2661 34.732 29.2287C35.0027 29.1166 35.1795 28.8522 35.1795 28.5592V24.4514H44.4092C46.9405 24.4514 49 22.3923 49 19.861V9.80957C49 7.2783 46.9405 5.21881 44.4092 5.21881Z" fill="white"/>
</g>
<defs>
<clipPath id="clip0_5250_8053">
<rect width="49" height="49" fill="white"/>
</clipPath>
</defs>
</svg>
