<svg width="55" height="55" viewBox="0 0 55 55" fill="none" xmlns="http://www.w3.org/2000/svg">
<path d="M54.7006 11.8589C54.6956 11.7788 54.68 11.6991 54.6536 11.6235C54.6437 11.594 54.6361 11.5658 54.6236 11.5371C54.5788 11.4373 54.5166 11.3464 54.4401 11.2686L43.4401 0.268555C43.3622 0.191569 43.2709 0.129354 43.1706 0.0850424C43.1433 0.0725097 43.1156 0.0649007 43.0874 0.0550537C43.0095 0.0281983 42.9289 0.012085 42.847 0.00716146C42.8313 0.0102946 42.8148 0 42.7955 0H15.2955C12.7657 0.00313314 10.7153 2.0531 10.7122 4.58333V11.3299C4.41056 14.109 0.34375 20.3466 0.34375 27.2341C0.34375 34.1217 4.41056 40.3593 10.7122 43.1384V50.4167C10.7153 52.9469 12.7657 54.9969 15.2955 55H50.1289C52.6591 54.9969 54.7095 52.9469 54.7122 50.4167V11.9167C54.7122 11.8965 54.7024 11.8791 54.7006 11.8589ZM51.5826 11H44.6289C44.1226 11 43.7122 10.5896 43.7122 10.0833V3.12956L51.5826 11ZM2.19633 27.2341C2.19096 23.0993 3.83093 19.1327 6.7546 16.2091C9.67826 13.2854 13.6453 11.6454 17.7797 11.6508C18.3007 11.6508 18.8176 11.6763 19.3279 11.726C26.4159 12.4265 32.1205 17.8558 33.1705 24.9004C33.2923 25.6725 33.3563 26.4526 33.3621 27.2341C33.3688 30.1699 32.539 33.0466 30.9706 35.528C29.7268 37.5108 28.0505 39.1866 26.0673 40.4296C21.2651 43.4454 15.2038 43.6146 10.2409 40.8709C5.278 38.1276 2.19722 32.9047 2.19633 27.2341ZM28.4261 41.0043C28.5514 40.9071 28.6754 40.8109 28.798 40.7111C29.2505 40.3468 29.6838 39.9596 30.0969 39.5514C30.5051 39.1383 30.8923 38.7054 31.2566 38.2534C31.3564 38.1307 31.4527 38.0059 31.5498 37.8805C31.6608 37.7355 31.7812 37.5981 31.8873 37.4504L39.7018 45.2743C40.2192 45.7868 40.5106 46.485 40.5106 47.2133C40.5106 47.9419 40.2192 48.6397 39.7018 49.1527C38.6195 50.1987 36.903 50.1987 35.8207 49.1527L27.9959 41.3418C28.1436 41.2343 28.2819 41.1153 28.4261 41.0043ZM50.1289 53.1667H15.2955C13.7769 53.1667 12.5455 51.9353 12.5455 50.4167V43.8541C12.6024 43.8724 12.6619 43.8845 12.7196 43.902C12.8665 43.9467 13.0151 43.9825 13.1637 44.0237C13.5065 44.1155 13.8521 44.2072 14.2012 44.2757C14.3726 44.3115 14.544 44.3446 14.7172 44.3751C15.0664 44.4364 15.4186 44.4847 15.7722 44.5255C15.9302 44.5434 16.086 44.5658 16.2444 44.5792C16.7524 44.6226 17.2636 44.6508 17.7797 44.6508C20.8099 44.653 23.7872 43.8599 26.4141 42.3502L34.5191 50.4471C35.6565 51.6919 37.3859 52.212 39.021 51.8002C40.6565 51.3888 41.9339 50.1128 42.3466 48.4777C42.7597 46.8427 42.2414 45.1127 40.9971 43.9745L32.8957 35.8682C34.4054 33.2413 35.199 30.2639 35.1963 27.2341C35.1963 26.6536 35.1686 26.0776 35.1122 25.5064C34.721 21.5014 32.9481 17.7577 30.0978 14.9178C26.838 11.6405 22.4024 9.80404 17.7797 9.81746C17.2636 9.81746 16.7524 9.84611 16.2444 9.88908C16.086 9.90295 15.9289 9.92489 15.7713 9.94324C15.4186 9.98263 15.0682 10.0328 14.719 10.0936C14.5449 10.1241 14.3713 10.1572 14.1985 10.1934C13.8538 10.2651 13.5119 10.3492 13.1726 10.4427C13.0204 10.4839 12.8682 10.5206 12.7143 10.5663C12.6574 10.5837 12.5997 10.5958 12.5428 10.6142V4.58333C12.5428 3.06466 13.7742 1.83333 15.2928 1.83333H41.8789V10.0833C41.8789 11.602 43.1102 12.8333 44.6289 12.8333H52.8789V50.4167C52.8789 51.9353 51.648 53.1667 50.1289 53.1667Z" fill="white"/>
<path d="M38.2109 6.41667C38.2109 5.91044 37.8005 5.5 37.2943 5.5H17.1276C16.6214 5.5 16.2109 5.91044 16.2109 6.41667C16.2109 6.92289 16.6214 7.33333 17.1276 7.33333H37.2943C37.8005 7.33333 38.2109 6.92289 38.2109 6.41667Z" fill="white"/>
<path d="M48.2956 22H37.2956C36.7893 22 36.3789 22.4104 36.3789 22.9167C36.3789 23.4229 36.7893 23.8333 37.2956 23.8333H48.2956C48.8018 23.8333 49.2122 23.4229 49.2122 22.9167C49.2122 22.4104 48.8018 22 48.2956 22Z" fill="white"/>
<path d="M48.2956 27.5H37.2956C36.7893 27.5 36.3789 27.9104 36.3789 28.4167C36.3789 28.9229 36.7893 29.3333 37.2956 29.3333H48.2956C48.8018 29.3333 49.2122 28.9229 49.2122 28.4167C49.2122 27.9104 48.8018 27.5 48.2956 27.5Z" fill="white"/>
<path d="M49.2129 33.9167C49.2129 33.4104 48.8025 33 48.2962 33H36.3796C35.8733 33 35.4629 33.4104 35.4629 33.9167C35.4629 34.4229 35.8733 34.8333 36.3796 34.8333H48.2962C48.8025 34.8333 49.2129 34.4229 49.2129 33.9167Z" fill="white"/>
<path d="M49.2122 39.4167C49.2122 38.9104 48.8018 38.5 48.2956 38.5H40.0456C39.5393 38.5 39.1289 38.9104 39.1289 39.4167C39.1289 39.9229 39.5393 40.3333 40.0456 40.3333H48.2956C48.8018 40.3333 49.2122 39.9229 49.2122 39.4167Z" fill="white"/>
<path d="M38.2116 11.9167C38.2116 11.4104 37.8012 11 37.2949 11H29.9616C29.4554 11 29.0449 11.4104 29.0449 11.9167C29.0449 12.4229 29.4554 12.8333 29.9616 12.8333H37.2949C37.8012 12.8333 38.2116 12.4229 38.2116 11.9167Z" fill="white"/>
<path d="M49.2122 17.4167C49.2122 16.9104 48.8018 16.5 48.2956 16.5H34.5456C34.0393 16.5 33.6289 16.9104 33.6289 17.4167C33.6289 17.9229 34.0393 18.3333 34.5456 18.3333H48.2956C48.8018 18.3333 49.2122 17.9229 49.2122 17.4167Z" fill="white"/>
<path d="M14.3796 22.9154H20.7962C21.3025 22.9154 21.7129 22.5049 21.7129 21.9987C21.7129 21.4925 21.3025 21.082 20.7962 21.082H14.3796C13.8733 21.082 13.4629 21.4925 13.4629 21.9987C13.4629 22.5049 13.8733 22.9154 14.3796 22.9154Z" fill="white"/>
<path d="M25.3783 27.4987C25.3783 26.9925 24.9678 26.582 24.4616 26.582H10.7116C10.2054 26.582 9.79492 26.9925 9.79492 27.4987C9.79492 28.0049 10.2054 28.4154 10.7116 28.4154H24.4616C24.9678 28.4154 25.3783 28.0049 25.3783 27.4987Z" fill="white"/>
<path d="M20.7962 32.082H14.3796C13.8733 32.082 13.4629 32.4925 13.4629 32.9987C13.4629 33.5049 13.8733 33.9154 14.3796 33.9154H20.7962C21.3025 33.9154 21.7129 33.5049 21.7129 32.9987C21.7129 32.4925 21.3025 32.082 20.7962 32.082Z" fill="white"/>
<path d="M24.3061 39.3249C26.5418 38.1343 28.3958 36.3358 29.6539 34.1377C29.7264 34.0111 29.8052 33.8884 29.8733 33.76C29.9086 33.6937 29.9364 33.6252 29.9704 33.559C30.1096 33.2913 30.2452 33.0237 30.3652 32.7497C30.4856 32.4758 30.58 32.2153 30.678 31.9459C30.7062 31.868 30.742 31.7919 30.7698 31.7131C33.1008 24.9344 29.8334 17.5017 23.2628 14.6366C16.6917 11.7716 9.02222 14.4357 5.64201 20.757C4.57808 22.7483 4.02396 24.9724 4.02934 27.2305C4.02083 32.0752 6.56539 36.5659 10.7257 39.0482C14.8861 41.531 20.0464 41.638 24.3061 39.3302V39.3249ZM12.0685 37.6916C11.0708 37.1478 10.1569 36.463 9.35433 35.6582C8.79753 35.1018 8.29667 34.4927 7.85848 33.8387C7.64185 33.5147 7.44267 33.1821 7.2596 32.8406C4.50065 27.6311 5.96248 21.1871 10.6993 17.6785C15.4362 14.1698 22.0265 14.6496 26.2057 18.8073C29.9068 22.5433 30.7393 28.2564 28.2588 32.8934V32.901C27.1658 34.9461 25.49 36.6205 23.4445 37.7126C19.896 39.6404 15.6112 39.6337 12.0685 37.6952V37.6916Z" fill="white"/>
<path d="M50.1276 44C49.6214 44 49.2109 44.4104 49.2109 44.9167V48.5833C49.2109 49.0896 48.8005 49.5 48.2943 49.5H44.6276C44.1214 49.5 43.7109 49.9104 43.7109 50.4167C43.7109 50.9229 44.1214 51.3333 44.6276 51.3333H48.2943C49.8134 51.3333 51.0443 50.102 51.0443 48.5833V44.9167C51.0443 44.4104 50.6338 44 50.1276 44Z" fill="white"/>
</svg>
