<svg width="132" height="132" viewBox="0 0 132 132" fill="none" xmlns="http://www.w3.org/2000/svg">
<path d="M131.282 28.4614C131.27 28.2691 131.232 28.0779 131.169 27.8964C131.145 27.8255 131.127 27.7578 131.097 27.6891C130.989 27.4495 130.84 27.2314 130.656 27.0445L104.256 0.644531C104.069 0.459766 103.85 0.310449 103.61 0.204102C103.544 0.174023 103.478 0.155762 103.41 0.132129C103.223 0.0676759 103.03 0.029004 102.833 0.0171875C102.795 0.024707 102.756 0 102.709 0H36.7095C30.638 0.00751955 25.717 4.92744 25.7095 11V27.1917C10.5855 33.8615 0.825195 48.8318 0.825195 65.3619C0.825195 81.892 10.5855 96.8623 25.7095 103.532V121C25.717 127.073 30.638 131.992 36.7095 132H120.309C126.382 131.992 131.303 127.073 131.309 121V28.6C131.309 28.5517 131.286 28.5098 131.282 28.4614ZM123.799 26.4H107.109C105.895 26.4 104.909 25.4149 104.909 24.2V7.51094L123.799 26.4ZM5.27139 65.3619C5.2585 55.4383 9.19443 45.9186 16.2112 38.9018C23.228 31.885 32.7488 27.949 42.6714 27.9619C43.9218 27.9619 45.1625 28.0231 46.3871 28.1424C63.3984 29.8235 77.0894 42.8538 79.6095 59.7609C79.9017 61.614 80.0553 63.4863 80.0692 65.3619C80.0854 72.4077 78.0938 79.3117 74.3297 85.2672C71.3444 90.026 67.3215 94.0479 62.5616 97.031C51.0363 104.269 36.4893 104.675 24.5783 98.0901C12.6674 91.5062 5.27354 78.9712 5.27139 65.3619ZM68.2228 98.4103C68.5235 98.1771 68.8211 97.9462 69.1154 97.7066C70.2015 96.8322 71.2413 95.903 72.2328 94.9233C73.2125 93.9318 74.1417 92.8931 75.0161 91.8081C75.2557 91.5138 75.4866 91.2141 75.7197 90.9133C75.9861 90.5652 76.2751 90.2355 76.5297 89.881L95.2845 108.658C96.5263 109.888 97.2256 111.564 97.2256 113.312C97.2256 115.061 96.5263 116.735 95.2845 117.966C92.687 120.477 88.5674 120.477 85.9699 117.966L67.1904 99.2202C67.5449 98.9624 67.8769 98.6767 68.2228 98.4103ZM120.309 127.6H36.7095C33.0646 127.6 30.1095 124.645 30.1095 121V105.25C30.2459 105.294 30.3888 105.323 30.5273 105.365C30.8797 105.472 31.2363 105.558 31.593 105.657C32.4158 105.877 33.2451 106.097 34.083 106.262C34.4944 106.348 34.9059 106.427 35.3216 106.5C36.1595 106.647 37.0049 106.763 37.8535 106.861C38.2327 106.904 38.6065 106.958 38.9868 106.99C40.2061 107.094 41.4328 107.162 42.6714 107.162C49.9438 107.167 57.0896 105.264 63.3941 101.64L82.8461 121.073C85.5757 124.06 89.7265 125.309 93.6506 124.32C97.5758 123.333 100.642 120.271 101.632 116.346C102.624 112.422 101.38 108.271 98.3933 105.539L78.9499 86.0836C82.5732 79.779 84.4778 72.6333 84.4714 65.3619C84.4714 63.9687 84.4048 62.5861 84.2694 61.2154C83.3306 51.6033 79.0756 42.6186 72.235 35.8026C64.4114 27.9372 53.7659 23.5297 42.6714 23.5619C41.4328 23.5619 40.2061 23.6307 38.9868 23.7338C38.6065 23.7671 38.2295 23.8197 37.8514 23.8638C37.0049 23.9583 36.1638 24.0786 35.3259 24.2247C34.908 24.2978 34.4912 24.3772 34.0766 24.4643C33.2494 24.6361 32.4287 24.8381 31.6145 25.0626C31.2492 25.1614 30.884 25.2495 30.5145 25.3591C30.378 25.401 30.2395 25.43 30.103 25.474V11C30.103 7.35518 33.0582 4.4 36.703 4.4H100.509V24.2C100.509 27.8448 103.465 30.8 107.109 30.8H126.909V121C126.909 124.645 123.955 127.6 120.309 127.6Z" fill="white"/>
</svg>
